<svg width="47" height="47" viewBox="0 0 47 47" fill="none" xmlns="http://www.w3.org/2000/svg">
<rect width="47" height="47" rx="23.5" fill="#FF0000" fill-opacity="0.05"/>
<path d="M18.2168 33.0097C17.6356 33.0097 17.1383 32.803 16.7248 32.3895C16.3106 31.9753 16.1035 31.4776 16.1035 30.8965V17.1602C15.8041 17.1602 15.553 17.0591 15.3501 16.8569C15.148 16.654 15.0469 16.4029 15.0469 16.1035C15.0469 15.8041 15.148 15.553 15.3501 15.3501C15.553 15.148 15.8041 15.0469 16.1035 15.0469H20.3301C20.3301 14.7475 20.4315 14.4964 20.6344 14.2935C20.8366 14.0913 21.0873 13.9902 21.3867 13.9902H25.6133C25.9126 13.9902 26.1638 14.0913 26.3667 14.2935C26.5688 14.4964 26.6699 14.7475 26.6699 15.0469H30.8965C31.1958 15.0469 31.4466 15.148 31.6488 15.3501C31.8517 15.553 31.9531 15.8041 31.9531 16.1035C31.9531 16.4029 31.8517 16.654 31.6488 16.8569C31.4466 17.0591 31.1958 17.1602 30.8965 17.1602V30.8965C30.8965 31.4776 30.6897 31.9753 30.2762 32.3895C29.862 32.803 29.3643 33.0097 28.7832 33.0097H18.2168ZM20.3301 27.7265C20.3301 28.0259 20.4315 28.2767 20.6344 28.4789C20.8366 28.6817 21.0873 28.7832 21.3867 28.7832C21.6861 28.7832 21.9372 28.6817 22.1401 28.4789C22.3423 28.2767 22.4433 28.0259 22.4433 27.7265V20.3301C22.4433 20.0307 22.3423 19.7796 22.1401 19.5767C21.9372 19.3745 21.6861 19.2734 21.3867 19.2734C21.0873 19.2734 20.8366 19.3745 20.6344 19.5767C20.4315 19.7796 20.3301 20.0307 20.3301 20.3301V27.7265ZM24.5566 27.7265C24.5566 28.0259 24.6581 28.2767 24.8609 28.4789C25.0631 28.6817 25.3139 28.7832 25.6133 28.7832C25.9126 28.7832 26.1638 28.6817 26.3667 28.4789C26.5688 28.2767 26.6699 28.0259 26.6699 27.7265V20.3301C26.6699 20.0307 26.5688 19.7796 26.3667 19.5767C26.1638 19.3745 25.9126 19.2734 25.6133 19.2734C25.3139 19.2734 25.0631 19.3745 24.8609 19.5767C24.6581 19.7796 24.5566 20.0307 24.5566 20.3301V27.7265Z" fill="#CF0000"/>
</svg>
