<svg width="28" height="28" viewBox="0 0 28 28" fill="none" xmlns="http://www.w3.org/2000/svg">
<path d="M14 0.5C6.548 0.5 0.5 6.548 0.5 14C0.5 21.452 6.548 27.5 14 27.5C21.452 27.5 27.5 21.452 27.5 14C27.5 6.548 21.452 0.5 14 0.5ZM14 5.9C16.6055 5.9 18.725 8.0195 18.725 10.625C18.725 13.2305 16.6055 15.35 14 15.35C11.3945 15.35 9.275 13.2305 9.275 10.625C9.275 8.0195 11.3945 5.9 14 5.9ZM14 24.8C11.2595 24.8 8.0195 23.693 5.711 20.912C7.9925 19.13 10.868 18.05 14 18.05C17.132 18.05 20.0075 19.13 22.289 20.912C19.9805 23.693 16.7405 24.8 14 24.8Z" fill="black"/>
</svg>
