<svg width="25" height="24" viewBox="0 0 25 24" fill="none" xmlns="http://www.w3.org/2000/svg">
<g id="Add link" clip-path="url(#clip0_285_275)">
<path id="Vector" d="M8.5 11H16.5V13H8.5V11ZM20.6 12H22.5C22.5 9.24 20.26 7 17.5 7H13.5V8.9H17.5C19.21 8.9 20.6 10.29 20.6 12ZM4.4 12C4.4 10.29 5.79 8.9 7.5 8.9H11.5V7H7.5C4.74 7 2.5 9.24 2.5 12C2.5 14.76 4.74 17 7.5 17H11.5V15.1H7.5C5.79 15.1 4.4 13.71 4.4 12ZM19.5 12H17.5V15H14.5V17H17.5V20H19.5V17H22.5V15H19.5V12Z" fill="white"/>
</g>
<defs>
<clipPath id="clip0_285_275">
<rect width="24" height="24" fill="white" transform="translate(0.5)"/>
</clipPath>
</defs>
</svg>
