<svg width="18" height="20" viewBox="0 0 18 20" fill="none" xmlns="http://www.w3.org/2000/svg">
<path id="Vector" d="M3.66992 19.3926C3.08877 19.3926 2.59144 19.1858 2.17794 18.7723C1.76374 18.3581 1.55664 17.8604 1.55664 17.2793V3.54296C1.25726 3.54296 1.00613 3.44188 0.803256 3.23971C0.601085 3.03683 0.5 2.78571 0.5 2.48633C0.5 2.18694 0.601085 1.93582 0.803256 1.73294C1.00613 1.53077 1.25726 1.42969 1.55664 1.42969H5.7832C5.7832 1.1303 5.88463 0.879177 6.08751 0.676302C6.28968 0.474132 6.54045 0.373047 6.83984 0.373047H11.0664C11.3658 0.373047 11.6169 0.474132 11.8198 0.676302C12.0219 0.879177 12.123 1.1303 12.123 1.42969H16.3496C16.649 1.42969 16.8997 1.53077 17.1019 1.73294C17.3048 1.93582 17.4062 2.18694 17.4062 2.48633C17.4062 2.78571 17.3048 3.03683 17.1019 3.23971C16.8997 3.44188 16.649 3.54296 16.3496 3.54296V17.2793C16.3496 17.8604 16.1428 18.3581 15.7293 18.7723C15.3151 19.1858 14.8175 19.3926 14.2363 19.3926H3.66992ZM5.7832 14.1094C5.7832 14.4087 5.88463 14.6595 6.08751 14.8617C6.28968 15.0646 6.54045 15.166 6.83984 15.166C7.13922 15.166 7.39034 15.0646 7.59322 14.8617C7.79539 14.6595 7.89647 14.4087 7.89647 14.1094V6.71288C7.89647 6.4135 7.79539 6.16237 7.59322 5.9595C7.39034 5.75733 7.13922 5.65624 6.83984 5.65624C6.54045 5.65624 6.28968 5.75733 6.08751 5.9595C5.88463 6.16237 5.7832 6.4135 5.7832 6.71288V14.1094ZM10.0098 14.1094C10.0098 14.4087 10.1112 14.6595 10.3141 14.8617C10.5162 15.0646 10.767 15.166 11.0664 15.166C11.3658 15.166 11.6169 15.0646 11.8198 14.8617C12.0219 14.6595 12.123 14.4087 12.123 14.1094V6.71288C12.123 6.4135 12.0219 6.16237 11.8198 5.9595C11.6169 5.75733 11.3658 5.65624 11.0664 5.65624C10.767 5.65624 10.5162 5.75733 10.3141 5.9595C10.1112 6.16237 10.0098 6.4135 10.0098 6.71288V14.1094Z" fill="#A80000"/>
</svg>
