<svg width="25" height="24" viewBox="0 0 25 24" fill="none" xmlns="http://www.w3.org/2000/svg">
<g id="Question mark" clip-path="url(#clip0_285_321)">
<g id="Group">
<path id="Vector" d="M11.57 12.85C12.34 11.46 13.82 10.64 14.68 9.41C15.59 8.12 15.08 5.71 12.5 5.71C10.81 5.71 9.98 6.99 9.63 8.05L7.04 6.96C7.75 4.83 9.68 3 12.49 3C14.84 3 16.45 4.07 17.27 5.41C17.97 6.56 18.38 8.71 17.3 10.31C16.1 12.08 14.95 12.62 14.33 13.76C14.08 14.22 13.98 14.52 13.98 16H11.09C11.08 15.22 10.96 13.95 11.57 12.85ZM14.5 20C14.5 21.1 13.6 22 12.5 22C11.4 22 10.5 21.1 10.5 20C10.5 18.9 11.4 18 12.5 18C13.6 18 14.5 18.9 14.5 20Z" fill="#AD5400"/>
</g>
</g>
<defs>
<clipPath id="clip0_285_321">
<rect width="24" height="24" fill="white" transform="translate(0.5)"/>
</clipPath>
</defs>
</svg>
