<svg width="25" height="25" viewBox="0 0 25 25" fill="none" xmlns="http://www.w3.org/2000/svg">
<g id="Restart alt" clip-path="url(#clip0_285_774)">
<g id="Group">
<g id="Group_2">
<path id="Vector" d="M12.5 5.88281V2.88281L8.5 6.88281L12.5 10.8828V7.88281C15.81 7.88281 18.5 10.5728 18.5 13.8828C18.5 16.8528 16.33 19.3128 13.5 19.7928V21.8128C17.45 21.3228 20.5 17.9628 20.5 13.8828C20.5 9.46281 16.92 5.88281 12.5 5.88281Z" fill="black"/>
<path id="Vector_2" d="M6.5 13.8827C6.5 12.2327 7.17 10.7327 8.26 9.64266L6.84 8.22266C5.4 9.67266 4.5 11.6727 4.5 13.8827C4.5 17.9627 7.55 21.3227 11.5 21.8127V19.7927C8.67 19.3127 6.5 16.8527 6.5 13.8827Z" fill="black"/>
</g>
</g>
</g>
<defs>
<clipPath id="clip0_285_774">
<rect width="24" height="24" fill="white" transform="translate(0.5 0.882812)"/>
</clipPath>
</defs>
</svg>
