<svg width="25" height="25" viewBox="0 0 25 25" fill="none" xmlns="http://www.w3.org/2000/svg">
<g id="Save" clip-path="url(#clip0_285_787)">
<path id="Vector" d="M17.5 3.88281H5.5C4.39 3.88281 3.5 4.78281 3.5 5.88281V19.8828C3.5 20.9828 4.39 21.8828 5.5 21.8828H19.5C20.6 21.8828 21.5 20.9828 21.5 19.8828V7.88281L17.5 3.88281ZM12.5 19.8828C10.84 19.8828 9.5 18.5428 9.5 16.8828C9.5 15.2228 10.84 13.8828 12.5 13.8828C14.16 13.8828 15.5 15.2228 15.5 16.8828C15.5 18.5428 14.16 19.8828 12.5 19.8828ZM15.5 9.88281H5.5V5.88281H15.5V9.88281Z" fill="white"/>
</g>
<defs>
<clipPath id="clip0_285_787">
<rect width="24" height="24" fill="white" transform="translate(0.5 0.882812)"/>
</clipPath>
</defs>
</svg>
