<svg width="112" height="27" viewBox="0 0 112 27" fill="none" xmlns="http://www.w3.org/2000/svg">
<path d="M0.92 26V0.4H16.92V3.28H4.28V12.88H16.6V15.76H4.28V26H0.92ZM19.4825 26V8.4H22.6825V11.28H23.6425C24.2825 9.2 25.6265 8.016 28.2185 8.016C28.8265 8.016 29.5945 8.08 30.0745 8.176V11.632C29.3705 11.216 28.2185 10.896 27.1625 10.896C24.3785 10.896 22.6825 13.136 22.6825 17.168V26H19.4825ZM38.5575 26.32C33.6935 26.32 30.2375 22.544 30.2375 17.168C30.2375 11.792 33.6935 8.016 38.5895 8.016C43.4215 8.016 46.5895 12.24 46.2055 18.192H33.5015C33.8215 21.328 35.7095 23.44 38.2695 23.44C40.2535 23.44 42.0775 22.096 42.6535 20.176H45.9495C45.2455 23.76 42.1735 26.32 38.5575 26.32ZM33.6295 15.312H42.8775C42.5255 12.72 40.6055 10.896 38.2375 10.896C35.9335 10.896 34.1735 12.656 33.6295 15.312ZM56.8873 16.048C60.1193 16.656 62.5193 17.712 62.5193 20.88C62.5193 24.08 59.4473 26.512 55.6073 26.512C51.1913 26.512 47.9913 23.216 47.9913 19.056H51.1913C51.1913 21.648 53.0793 23.632 55.8313 23.632C57.7833 23.632 59.3193 22.64 59.3193 21.04C59.3193 19.664 58.1033 19.056 56.6313 18.736L53.3033 18C50.1673 17.232 48.3113 15.632 48.3113 13.168C48.3113 9.968 51.4153 7.888 54.8073 7.888C58.9673 7.888 61.8793 11.056 61.8793 15.024H58.6793C58.6793 12.624 57.0473 10.704 54.5833 10.704C53.0473 10.704 51.5113 11.472 51.5113 13.104C51.5113 14.032 52.0233 14.704 53.5593 15.216C54.5193 15.536 55.8633 15.856 56.8873 16.048ZM65.3888 26V0.4H68.5888V11.28H69.5488C70.1248 9.36 71.8528 8.016 74.1248 8.016C77.4528 8.016 79.7888 10.864 79.7888 14.928V26H76.5888V14.928C76.5888 12.56 75.1168 10.896 73.0688 10.896C70.4448 10.896 68.5888 13.488 68.5888 17.168V26H65.3888ZM90.3388 26.32C85.4748 26.32 82.0188 22.544 82.0188 17.168C82.0188 11.792 85.4748 8.016 90.3708 8.016C95.2028 8.016 98.3708 12.24 97.9868 18.192H85.2828C85.6028 21.328 87.4908 23.44 90.0508 23.44C92.0348 23.44 93.8588 22.096 94.4348 20.176H97.7308C97.0268 23.76 93.9548 26.32 90.3388 26.32ZM85.4108 15.312H94.6588C94.3068 12.72 92.3868 10.896 90.0188 10.896C87.7148 10.896 85.9548 12.656 85.4108 15.312ZM100.733 26V8.4H103.933V11.28H104.893C105.533 9.2 106.877 8.016 109.469 8.016C110.077 8.016 110.845 8.08 111.325 8.176V11.632C110.621 11.216 109.469 10.896 108.413 10.896C105.629 10.896 103.933 13.136 103.933 17.168V26H100.733Z" fill="#016201"/>
</svg>
