<svg width="194" height="47" viewBox="0 0 194 47" fill="none" xmlns="http://www.w3.org/2000/svg">
<path d="M0.36 45.5V0.699999H28.36V5.74H6.24V22.54H27.8V27.58H6.24V45.5H0.36ZM32.8444 45.5V14.7H38.4444V19.74H40.1244C41.2444 16.1 43.5964 14.028 48.1324 14.028C49.1964 14.028 50.5404 14.14 51.3804 14.308V20.356C50.1484 19.628 48.1324 19.068 46.2844 19.068C41.4124 19.068 38.4444 22.988 38.4444 30.044V45.5H32.8444ZM66.2256 46.06C57.7136 46.06 51.6656 39.452 51.6656 30.044C51.6656 20.636 57.7136 14.028 66.2816 14.028C74.7376 14.028 80.2816 21.42 79.6096 31.836H57.3776C57.9376 37.324 61.2416 41.02 65.7216 41.02C69.1936 41.02 72.3856 38.668 73.3936 35.308H79.1616C77.9296 41.58 72.5536 46.06 66.2256 46.06ZM57.6016 26.796H73.7856C73.1696 22.26 69.8096 19.068 65.6656 19.068C61.6336 19.068 58.5536 22.148 57.6016 26.796ZM98.3027 28.084C103.959 29.148 108.159 30.996 108.159 36.54C108.159 42.14 102.783 46.396 96.0627 46.396C88.3347 46.396 82.7347 40.628 82.7347 33.348H88.3347C88.3347 37.884 91.6387 41.356 96.4547 41.356C99.8707 41.356 102.559 39.62 102.559 36.82C102.559 34.412 100.431 33.348 97.8547 32.788L92.0307 31.5C86.5427 30.156 83.2947 27.356 83.2947 23.044C83.2947 17.444 88.7267 13.804 94.6627 13.804C101.943 13.804 107.039 19.348 107.039 26.292H101.439C101.439 22.092 98.5827 18.732 94.2707 18.732C91.5827 18.732 88.8947 20.076 88.8947 22.932C88.8947 24.556 89.7907 25.732 92.4787 26.628C94.1587 27.188 96.5107 27.748 98.3027 28.084ZM113.18 45.5V0.699999H118.78V19.74H120.46C121.468 16.38 124.492 14.028 128.468 14.028C134.292 14.028 138.38 19.012 138.38 26.124V45.5H132.78V26.124C132.78 21.98 130.204 19.068 126.62 19.068C122.028 19.068 118.78 23.604 118.78 30.044V45.5H113.18ZM156.843 46.06C148.331 46.06 142.283 39.452 142.283 30.044C142.283 20.636 148.331 14.028 156.899 14.028C165.355 14.028 170.899 21.42 170.227 31.836H147.995C148.555 37.324 151.859 41.02 156.339 41.02C159.811 41.02 163.003 38.668 164.011 35.308H169.779C168.547 41.58 163.171 46.06 156.843 46.06ZM148.219 26.796H164.403C163.787 22.26 160.427 19.068 156.283 19.068C152.251 19.068 149.171 22.148 148.219 26.796ZM175.032 45.5V14.7H180.632V19.74H182.312C183.432 16.1 185.784 14.028 190.32 14.028C191.384 14.028 192.728 14.14 193.568 14.308V20.356C192.336 19.628 190.32 19.068 188.472 19.068C183.6 19.068 180.632 22.988 180.632 30.044V45.5H175.032Z" fill="#016201"/>
</svg>
