<svg width="49" height="48" viewBox="0 0 49 48" fill="none" xmlns="http://www.w3.org/2000/svg">
<g id="Account circle">
<path id="Vector" d="M14.4906 32.936C15.8132 31.9246 17.2914 31.1269 18.9252 30.5429C20.559 29.9599 22.2706 29.6684 24.06 29.6684C25.8494 29.6684 27.561 29.9599 29.1948 30.5429C30.8286 31.1269 32.3068 31.9246 33.6294 32.936C34.5371 31.8728 35.244 30.6669 35.7502 29.3183C36.2554 27.9698 36.508 26.5305 36.508 25.0004C36.508 21.5513 35.2959 18.6141 32.8716 16.1888C30.4463 13.7646 27.5091 12.5524 24.06 12.5524C20.6109 12.5524 17.6742 13.7646 15.2499 16.1888C12.8246 18.6141 11.612 21.5513 11.612 25.0004C11.612 26.5305 11.8651 27.9698 12.3713 29.3183C12.8765 30.6669 13.5829 31.8728 14.4906 32.936ZM24.06 26.5564C22.5299 26.5564 21.2395 26.0315 20.1887 24.9818C19.1389 23.9309 18.614 22.6405 18.614 21.1104C18.614 19.5804 19.1389 18.2899 20.1887 17.2391C21.2395 16.1893 22.5299 15.6644 24.06 15.6644C25.5901 15.6644 26.8805 16.1893 27.9313 17.2391C28.9811 18.2899 29.506 19.5804 29.506 21.1104C29.506 22.6405 28.9811 23.9309 27.9313 24.9818C26.8805 26.0315 25.5901 26.5564 24.06 26.5564ZM24.06 40.5604C21.9075 40.5604 19.8847 40.1517 17.9916 39.3343C16.0985 38.5179 14.4517 37.4095 13.0513 36.0091C11.6509 34.6087 10.5425 32.962 9.72613 31.0688C8.90871 29.1757 8.5 27.1529 8.5 25.0004C8.5 22.848 8.90871 20.8252 9.72613 18.932C10.5425 17.0389 11.6509 15.3921 13.0513 13.9917C14.4517 12.5913 16.0985 11.4824 17.9916 10.665C19.8847 9.84862 21.9075 9.44043 24.06 9.44043C26.2125 9.44043 28.2353 9.84862 30.1284 10.665C32.0215 11.4824 33.6683 12.5913 35.0687 13.9917C36.4691 15.3921 37.5775 17.0389 38.3939 18.932C39.2113 20.8252 39.62 22.848 39.62 25.0004C39.62 27.1529 39.2113 29.1757 38.3939 31.0688C37.5775 32.962 36.4691 34.6087 35.0687 36.0091C33.6683 37.4095 32.0215 38.5179 30.1284 39.3343C28.2353 40.1517 26.2125 40.5604 24.06 40.5604Z" fill="#016201"/>
</g>
</svg>
