<svg width="49" height="48" viewBox="0 0 49 48" fill="none" xmlns="http://www.w3.org/2000/svg">
<g id="Rss feed" clip-path="url(#clip0_285_435)">
<path id="Vector" d="M12.86 40.0003C15.268 40.0003 17.22 38.0482 17.22 35.6403C17.22 33.2323 15.268 31.2803 12.86 31.2803C10.452 31.2803 8.5 33.2323 8.5 35.6403C8.5 38.0482 10.452 40.0003 12.86 40.0003Z" fill="#016201"/>
<path id="Vector_2" d="M8.5 8.87988V14.5399C22.56 14.5399 33.96 25.9399 33.96 39.9999H39.62C39.62 22.8199 25.68 8.87988 8.5 8.87988ZM8.5 20.1999V25.8599C16.3 25.8599 22.64 32.1999 22.64 39.9999H28.3C28.3 29.0599 19.44 20.1999 8.5 20.1999Z" fill="#016201"/>
</g>
<defs>
<clipPath id="clip0_285_435">
<rect width="48" height="48" fill="white" transform="translate(0.5)"/>
</clipPath>
</defs>
</svg>
