<svg width="23" height="24" viewBox="0 0 23 24" fill="none" xmlns="http://www.w3.org/2000/svg">
<g id="RSS Icon">
<path id="Vector" d="M3.29398 23.1683C5.02238 23.1683 6.42353 21.7671 6.42353 20.0387C6.42353 18.3103 5.02238 16.9092 3.29398 16.9092C1.56558 16.9092 0.164429 18.3103 0.164429 20.0387C0.164429 21.7671 1.56558 23.1683 3.29398 23.1683Z" fill="black"/>
<path id="Vector_2" d="M0.164429 0.831055V4.89373C10.2565 4.89373 18.4393 13.0765 18.4393 23.1686H22.502C22.502 10.837 12.496 0.831055 0.164429 0.831055ZM0.164429 8.95641V13.0191C5.76317 13.0191 10.3139 17.5699 10.3139 23.1686H14.3766C14.3766 15.316 8.01702 8.95641 0.164429 8.95641Z" fill="black"/>
</g>
</svg>
