<svg width="28" height="28" viewBox="0 0 28 28" fill="none" xmlns="http://www.w3.org/2000/svg">
<path id="Vector" d="M23.9169 15.3497C23.9743 14.919 24.003 14.474 24.003 14.0003C24.003 13.5409 23.9743 13.0815 23.9025 12.6508L26.8167 10.3826C27.0751 10.1816 27.1469 9.79403 26.989 9.50692L24.2327 4.74081C24.0604 4.42498 23.7015 4.32449 23.3857 4.42498L19.9547 5.80313C19.2369 5.25762 18.476 4.79823 17.6291 4.45369L17.1122 0.807335C17.0548 0.462797 16.7677 0.21875 16.4232 0.21875H10.9106C10.566 0.21875 10.2933 0.462797 10.2358 0.807335L9.71904 4.45369C8.87205 4.79823 8.09684 5.27197 7.39341 5.80313L3.96239 4.42498C3.64656 4.31014 3.28767 4.42498 3.1154 4.74081L0.37345 9.50692C0.201181 9.80839 0.258604 10.1816 0.545719 10.3826L3.45993 12.6508C3.38816 13.0815 3.33073 13.5552 3.33073 14.0003C3.33073 14.4453 3.35944 14.919 3.43122 15.3497L0.517007 17.6179C0.258604 17.8189 0.186825 18.2065 0.344738 18.4936L3.10104 23.2597C3.27331 23.5755 3.6322 23.676 3.94803 23.5755L7.37905 22.1974C8.09684 22.7429 8.85769 23.2023 9.70468 23.5468L10.2215 27.1932C10.2933 27.5377 10.566 27.7818 10.9106 27.7818H16.4232C16.7677 27.7818 17.0548 27.5377 17.0979 27.1932L17.6147 23.5468C18.4617 23.2023 19.2369 22.7429 19.9403 22.1974L23.3714 23.5755C23.6872 23.6904 24.0461 23.5755 24.2183 23.2597L26.9746 18.4936C27.1469 18.1778 27.0751 17.8189 26.8024 17.6179L23.9169 15.3497ZM13.6669 19.1683C10.8244 19.1683 8.4988 16.8427 8.4988 14.0003C8.4988 11.1578 10.8244 8.8322 13.6669 8.8322C16.5093 8.8322 18.8349 11.1578 18.8349 14.0003C18.8349 16.8427 16.5093 19.1683 13.6669 19.1683Z" fill="black"/>
</svg>
