<svg xmlns="http://www.w3.org/2000/svg" width="311" height="54" viewBox="0 0 311 54" fill="none">
  <path d="M197.159 18.22C197.104 14.4958 193.873 12.1956 190.148 12.1408C186.698 12.086 182.536 12.5242 182.536 16.4127C182.536 19.7535 186.589 20.9036 189.929 21.6156C195.735 22.8205 203.786 24.6278 203.786 32.6239C203.786 40.127 196.83 42.5916 189.71 42.7011C182.7 42.8106 175.69 39.3603 175.142 32.0214L181.331 31.1999C181.714 34.9789 185.329 37.4434 189.656 37.4434C193.27 37.3887 197.378 36.6767 197.378 32.7882C197.378 28.5163 190.86 27.8591 187.081 26.928C181.824 25.6136 176.128 23.4777 176.128 16.4674C176.128 9.01905 183.795 6.66404 190.258 6.82834C196.83 6.93788 203.183 10.3335 203.183 17.6723L197.159 18.22Z" fill="#C9FF00"/>
  <path d="M210.89 28.8449C210.89 33.7192 214.012 37.4434 219.16 37.4434C222.72 37.4434 225.404 35.6361 226.664 32.8977L231.154 35.2527C229.566 39.6341 225.185 42.7559 219.16 42.7559C211.164 42.7559 205.03 37.0601 205.03 28.8997C205.03 20.7393 211.219 15.0435 219.16 15.0435C225.185 15.0435 229.566 18.1652 231.154 22.5466L226.664 24.9016C225.404 22.1633 222.72 20.3559 219.16 20.3559C214.067 20.3559 210.89 24.0254 210.89 28.8449Z" fill="#C9FF00"/>
  <path d="M233.784 15.4816H235.537C237.837 15.4816 239.425 17.0151 239.37 19.3154V19.6987C241.013 17.3437 243.588 15.2626 246.107 15.2626H251.967V20.575H245.614C241.452 20.575 239.535 23.5872 239.535 28.5711V42.0439H233.784V20.6845V15.4816Z" fill="#C9FF00"/>
  <path d="M252.608 28.8997C252.608 21.2322 258.195 15.0435 266.684 15.0435C275.173 15.0435 280.704 21.287 280.704 28.8997C280.704 36.841 274.625 42.5916 266.684 42.5916C258.742 42.5916 252.608 36.841 252.608 28.8997ZM266.684 37.2791C271.722 37.2791 274.899 33.6097 274.899 28.8449C274.899 24.0254 271.722 20.3559 266.684 20.3559C261.645 20.3559 258.468 24.0254 258.468 28.8449C258.468 33.5549 261.7 37.2791 266.684 37.2791Z" fill="#C9FF00"/>
  <path d="M283.392 4.96624H289.143V37.3339H293.743V42.482H290.183C286.295 42.4273 283.392 40.4009 283.392 35.9099V4.96624Z" fill="#C9FF00"/>
  <path d="M296.164 4.96624H301.915V37.3339H306.515V42.482H302.955C299.067 42.4273 296.164 40.4009 296.164 35.9099V4.96624Z" fill="#C9FF00"/>
  <path d="M22.0166 18.22C21.9618 14.4958 18.7305 12.1956 15.0063 12.1408C11.556 12.086 7.39362 12.5242 7.39362 16.4127C7.39362 19.7535 11.4464 20.9036 14.7872 21.6156C20.5926 22.8205 28.6434 24.6278 28.6434 32.6239C28.6434 40.127 21.688 42.5916 14.5682 42.7011C7.55793 42.8106 0.547676 39.3603 0 32.0214L6.18874 31.1999C6.57211 34.9789 10.1868 37.4434 14.5134 37.4434C18.1281 37.3887 22.2356 36.6767 22.2356 32.7882C22.2356 28.5163 15.7183 27.8591 11.9393 26.928C6.68165 25.6136 0.985816 23.4777 0.985816 16.4674C0.985816 9.01905 8.65328 6.66404 15.1159 6.82834C21.688 6.93788 28.041 10.3335 28.041 17.6723L22.0166 18.22Z" fill="#3C2BF6"/>
  <path d="M28.8475 15.2626H29.6691C32.4074 15.2626 34.102 15.2659 34.102 15.2659V6.17827H39.9356V15.4816H48.5091V20.4107H39.9654V37.553H49.5497V42.5916L40.8964 42.6463C37.0079 42.5916 34.1052 40.4556 34.1052 35.9099V20.4107H28.8475V15.2626Z" fill="#3C2BF6"/>
  <path d="M49.8792 28.8997C49.8792 21.2322 55.4654 15.0435 63.9544 15.0435C72.4434 15.0435 77.9749 21.287 77.9749 28.8997C77.9749 36.841 71.8957 42.5916 63.9544 42.5916C56.0131 42.5916 49.8792 36.841 49.8792 28.8997ZM63.9544 37.2791C68.993 37.2791 72.1696 33.6097 72.1696 28.8449C72.1696 24.0254 68.993 20.3559 63.9544 20.3559C58.9158 20.3559 55.7393 24.0254 55.7393 28.8449C55.7393 33.5549 58.9706 37.2791 63.9544 37.2791Z" fill="#3C2BF6"/>
  <path d="M86.5777 53.7642H80.8271V15.5912H86.4134V21.3965C88.1112 17.3437 92.4926 15.0435 96.3811 15.0435C103.61 15.0435 108.868 20.575 108.868 28.7901C108.868 36.6767 103.61 42.5916 95.943 42.5916C91.9997 42.5916 88.385 40.0175 86.5777 36.7862V53.7642ZM94.7381 37.6077C99.7219 37.6077 102.953 33.6097 102.953 28.8997C102.953 24.0801 99.7219 20.1916 94.7928 20.1916C89.7542 20.1916 86.5229 24.1897 86.5229 28.8997C86.5229 33.6097 89.7542 37.6077 94.7381 37.6077Z" fill="#3C2BF6"/>
  <path d="M116.177 27.7102C116.248 27.5676 116.391 27.3536 116.605 27.0684C116.819 26.7475 116.926 26.4801 116.926 26.2661V26.1057C116.926 26.07 116.89 26.0344 116.819 25.9987C116.748 25.9274 116.694 25.8917 116.658 25.8917H115.696C114.769 26.177 113.735 26.3731 112.594 26.4801C111.417 26.587 110.294 26.6227 109.224 26.587C108.119 26.5514 107.174 26.4622 106.389 26.3196C105.605 26.1413 105.141 25.9452 104.999 25.7313C104.856 25.5174 105.124 25.2678 105.801 24.9825C106.479 24.6616 107.762 24.3407 109.652 24.0198C109.759 24.0198 110.009 23.9841 110.401 23.9128C110.757 23.8059 111.167 23.7167 111.631 23.6454C112.059 23.5741 112.469 23.5028 112.861 23.4315C113.253 23.3245 113.503 23.271 113.61 23.271C113.752 23.2354 114.055 23.2175 114.519 23.2175C114.983 23.1819 115.446 23.1462 115.91 23.1106C116.409 23.0749 116.872 23.0571 117.3 23.0571C117.764 23.0571 118.085 23.0571 118.263 23.0571L118.53 22.7362L122.702 15.7298C122.845 15.4802 123.094 15.2841 123.451 15.1415C123.843 14.9988 124.146 14.9275 124.36 14.9275C124.824 14.9275 125.144 15.1236 125.323 15.5159C125.501 15.8724 125.59 16.229 125.59 16.5855C125.59 16.6212 125.572 16.6568 125.537 16.6925C125.537 16.7282 125.537 16.7638 125.537 16.7995V17.0134L123.183 22.7362V23.0571C123.255 22.8432 123.38 22.7362 123.558 22.7362C123.772 22.7362 123.932 22.7362 124.039 22.7362C124.574 22.7362 125.091 22.9145 125.59 23.271C126.089 23.6276 126.339 24.1089 126.339 24.7151C126.339 25.0003 126.25 25.2321 126.072 25.4104C125.893 25.5887 125.679 25.7313 125.43 25.8383C125.18 25.9452 124.913 26.0344 124.627 26.1057C124.342 26.1413 124.093 26.1592 123.879 26.1592C123.451 26.1592 123.041 26.1057 122.649 25.9987C122.292 25.8917 121.9 25.8383 121.472 25.8383C121.08 25.8383 120.723 26.0522 120.402 26.4801C120.081 26.8723 119.778 27.4071 119.493 28.0846C119.243 28.7264 119.029 29.4573 118.851 30.2774C118.673 31.0975 118.512 31.8998 118.37 32.6842C118.227 33.4686 118.12 34.1996 118.049 34.877C118.013 35.5545 117.995 36.0715 117.995 36.4281C117.995 36.5707 117.995 36.856 117.995 37.2838C118.031 37.7117 118.049 37.9969 118.049 38.1396C118.085 38.3535 118.174 38.5496 118.316 38.7279C118.459 38.8705 118.602 39.031 118.744 39.2093H119.974C121.401 39.2093 122.809 38.8883 124.2 38.2465C125.626 37.6047 126.963 36.8738 128.211 36.0537C128.282 36.018 128.443 35.8576 128.692 35.5723C128.978 35.2514 129.281 34.9484 129.601 34.6631C129.922 34.3422 130.208 34.057 130.457 33.8074C130.742 33.5578 130.939 33.433 131.046 33.433C131.295 33.433 131.527 33.5578 131.741 33.8074C131.955 34.057 132.062 34.3244 132.062 34.6096C132.062 35.2871 131.812 35.9467 131.313 36.5885C130.849 37.2303 130.243 37.8365 129.495 38.407C128.746 38.9418 127.89 39.441 126.927 39.9045C125.965 40.3681 125.002 40.7603 124.039 41.0812C123.112 41.4021 122.221 41.6517 121.365 41.83C120.545 42.0082 119.867 42.0974 119.333 42.0974C118.833 42.0974 118.316 42.0439 117.782 41.9369C117.247 41.7943 116.765 41.5804 116.337 41.2951C115.91 41.0099 115.553 40.6533 115.268 40.2254C114.983 39.7976 114.84 39.2627 114.84 38.6209V32.6842L116.177 27.7102Z" fill="#3C2BF6"/>
  <path d="M141.849 30.01C141.778 29.8674 141.653 29.6713 141.475 29.4217C141.332 29.1364 141.154 28.9938 140.94 28.9938C140.263 28.9938 139.567 29.2969 138.854 29.903C138.177 30.4735 137.517 31.1688 136.875 31.9889C136.269 32.7733 135.734 33.5756 135.271 34.3957C134.843 35.2158 134.576 35.8576 134.469 36.3211C134.326 36.7846 134.255 37.3373 134.255 37.9791C134.255 38.6209 134.201 39.2271 134.094 39.7976C134.023 40.3681 133.827 40.8494 133.506 41.2416C133.221 41.6339 132.704 41.83 131.955 41.83C131.491 41.83 131.17 41.7408 130.992 41.5625C130.849 41.3486 130.778 41.0099 130.778 40.5463C131.028 38.8349 131.242 37.4265 131.42 36.3211C131.634 35.2158 131.812 34.2531 131.955 33.433C132.133 32.5772 132.294 31.7572 132.436 30.9727C132.614 30.1526 132.811 29.1721 133.024 28.0311C133.238 26.8901 133.47 25.4995 133.72 23.8594C133.969 22.1835 134.272 20.062 134.629 17.4948C134.629 16.9599 134.665 16.2111 134.736 15.2484C134.807 14.2501 134.932 13.1982 135.11 12.0929C135.324 10.9519 135.592 9.8109 135.913 8.6699C136.234 7.49326 136.626 6.44141 137.089 5.51435C137.588 4.58729 138.159 3.83852 138.801 3.26802C139.443 2.66187 140.191 2.3588 141.047 2.3588C141.653 2.3588 142.135 2.57273 142.491 3.0006C142.883 3.39282 143.169 3.87418 143.347 4.44467C143.561 5.01517 143.686 5.62132 143.721 6.26313C143.757 6.86928 143.775 7.36846 143.775 7.76068C143.775 8.65208 143.703 9.50782 143.561 10.3279C143.418 11.1123 143.24 11.9146 143.026 12.7347C142.812 13.5191 142.58 14.3214 142.331 15.1415C142.081 15.9259 141.867 16.7103 141.689 17.4948L138.266 24.0198L136.34 28.1916L136.608 28.7799C137.357 27.8885 138.123 27.211 138.908 26.7475C139.692 26.2483 140.673 25.9631 141.849 25.8917C142.384 25.8561 142.83 26.0165 143.186 26.3731C143.579 26.7297 143.9 27.1932 144.149 27.7637C144.399 28.2985 144.577 28.8512 144.684 29.4217C144.827 29.9922 144.916 30.4557 144.951 30.8123C144.951 31.0262 144.934 31.3649 144.898 31.8285C144.862 32.292 144.827 32.8268 144.791 33.433C144.755 34.0391 144.72 34.6809 144.684 35.3584C144.684 36.0002 144.72 36.6064 144.791 37.1769C144.862 37.7474 145.005 38.2465 145.219 38.6744C145.468 39.0666 145.789 39.2984 146.182 39.3697C147.572 39.1914 148.802 38.9597 149.872 38.6744C150.977 38.3535 151.94 37.9256 152.76 37.3908C153.58 36.8203 154.258 36.1072 154.792 35.2514C155.363 34.3957 155.791 33.3438 156.076 32.0959C156.326 31.7393 156.682 31.561 157.146 31.561C157.681 31.561 158.019 31.7571 158.162 32.1494C158.34 32.5416 158.429 32.9695 158.429 33.433C158.429 34.8592 157.966 36.125 157.039 37.2303C156.147 38.3 155.006 39.1914 153.616 39.9045C152.225 40.6177 150.728 41.1703 149.123 41.5625C147.519 41.9191 146.039 42.0974 144.684 42.0974C143.828 42.0974 143.24 41.8121 142.919 41.2416C142.598 40.6355 142.402 39.9224 142.331 39.1023C142.295 38.2465 142.295 37.3908 142.331 36.5351C142.366 35.6793 142.366 34.984 142.331 34.4492C142.331 34.2709 142.313 33.9856 142.277 33.5934C142.242 33.1656 142.188 32.7199 142.117 32.2563C142.081 31.7928 142.028 31.3471 141.956 30.9192C141.885 30.4914 141.849 30.1883 141.849 30.01ZM137.464 17.1739C137.464 17.2808 137.464 17.4591 137.464 17.7087C137.464 17.9583 137.464 18.1901 137.464 18.404C137.499 18.6179 137.517 18.814 137.517 18.9923C137.517 19.1706 137.517 19.2776 137.517 19.3132L137.785 19.5806C138.141 19.3667 138.462 18.9923 138.747 18.4575C139.068 17.9226 139.353 17.2808 139.603 16.532C139.853 15.7833 140.067 14.9988 140.245 14.1788C140.459 13.323 140.637 12.4851 140.78 11.665C140.922 10.8449 141.029 10.0961 141.101 9.41868C141.208 8.74122 141.261 8.18855 141.261 7.76068C141.261 7.61805 141.243 7.35063 141.208 6.95842C141.208 6.5662 141.19 6.33444 141.154 6.26313L140.887 5.72829C140.031 6.40575 139.371 7.20801 138.908 8.13506C138.444 9.06212 138.105 10.0248 137.892 11.0232C137.678 12.0216 137.553 13.0556 137.517 14.1253C137.481 15.1949 137.464 16.2111 137.464 17.1739Z" fill="#3C2BF6"/>
  <path d="M157.413 33.7004C157.484 33.4865 157.591 33.1121 157.734 32.5772C157.912 32.0067 158.073 31.4006 158.215 30.7588C158.394 30.117 158.536 29.5108 158.643 28.9403C158.786 28.3342 158.893 27.9241 158.964 27.7102C159.178 26.8545 159.428 25.9274 159.713 24.929C160.034 23.9307 160.462 23.0036 160.997 22.1479C161.531 21.2921 162.209 20.5968 163.029 20.062C163.885 19.4915 164.937 19.2062 166.185 19.2062C166.648 19.2062 166.969 19.3845 167.147 19.7411C167.361 20.062 167.539 20.4185 167.682 20.8108C167.682 20.9534 167.682 21.2208 167.682 21.613C167.718 21.9696 167.736 22.2192 167.736 22.3618C167.736 23.895 167.575 25.2499 167.254 26.4266C166.969 27.6032 166.505 28.6907 165.864 29.6891C165.257 30.6875 164.509 31.6324 163.617 32.5238C162.726 33.3795 161.71 34.2887 160.569 35.2514C160.533 35.3584 160.48 35.5367 160.408 35.7863C160.337 36.0359 160.301 36.2141 160.301 36.3211V36.4281C160.301 37.0699 160.408 37.5869 160.622 37.9791C160.836 38.3713 161.121 38.6922 161.478 38.9418C161.87 39.1558 162.298 39.2984 162.762 39.3697C163.261 39.4054 163.796 39.4232 164.366 39.4232C166.042 39.4232 167.646 39.1914 169.18 38.7279C170.713 38.2644 172.121 37.5156 173.405 36.4816C173.583 36.3033 173.797 36.0537 174.047 35.7328C174.332 35.3762 174.902 34.6631 174.902 34.6631L175.812 33.7539C176.133 33.4686 176.471 33.326 176.828 33.326C177.184 33.326 177.398 33.4686 177.47 33.7539C177.541 34.0391 177.577 34.3244 177.577 34.6096C177.577 35.3941 177.327 36.1428 176.828 36.856C176.364 37.5334 175.74 38.1574 174.956 38.7279C174.207 39.2627 173.334 39.7441 172.335 40.172C171.372 40.5998 170.41 40.9564 169.447 41.2416C168.484 41.5269 167.557 41.7408 166.666 41.8834C165.81 42.0261 165.079 42.0974 164.473 42.0974C162.583 42.0974 160.997 41.7943 159.713 41.1882C158.465 40.5463 157.609 39.2806 157.146 37.3908L157.413 33.7004ZM165.061 23.1641C164.348 23.8059 163.778 24.3942 163.35 24.929C162.958 25.4282 162.637 25.9631 162.387 26.5336C162.173 27.0684 161.977 27.6567 161.799 28.2985C161.656 28.9403 161.496 29.6891 161.317 30.5448C161.995 30.01 162.548 29.4752 162.975 28.9403C163.439 28.4055 163.813 27.8528 164.099 27.2823C164.384 26.7118 164.598 26.1057 164.74 25.4639C164.883 24.7864 164.99 24.0198 165.061 23.1641Z" fill="#3C2BF6"/>
  <path d="M293.655 37.3299H303.258V42.4807H293.655V37.3299Z" fill="#C9FF00"/>
  <path d="M301.905 37.3299H310.844V42.4807H301.905V37.3299Z" fill="#C9FF00"/>
  <path d="M247.884 15.2609L257.332 15.1474L266.781 15.034L264.433 20.5686H256.158H247.884V15.2609Z" fill="#C9FF00"/>
  <path d="M43.3118 37.5515H63.7594V42.6136H43.3118V37.5515Z" fill="#3C2BF6"/>
  <path d="M22.0285 15.2659L37.6762 15.266V20.419L22.0285 20.419V15.2659Z" fill="#3C2BF6"/>
  <path d="M175.812 33.7539L175.995 33.1032L180.619 31.2936L180.817 38.4503L176.76 36.9531C176.76 36.9531 176.562 37.3528 175.655 38.1677C174.748 38.9826 174.23 39.2061 174.23 39.2061V35.504L174.902 34.6631L175.812 33.7539Z" fill="#C9FF00"/>
  <path d="M34.102 6.17827H39.9356V27.3264H34.102V6.17827Z" fill="#3C2BF6"/>
</svg>