<svg xmlns="http://www.w3.org/2000/svg" width="312" height="52" viewBox="0 0 312 52" fill="none">
  <path d="M197.659 16.3382C197.604 12.614 194.373 10.3137 190.648 10.259C187.198 10.2042 183.036 10.6423 183.036 14.5308C183.036 17.8717 187.089 19.0218 190.429 19.7338C196.235 20.9386 204.286 22.746 204.286 30.742C204.286 38.2452 197.33 40.7097 190.21 40.8193C183.2 40.9288 176.19 37.4785 175.642 30.1396L181.831 29.3181C182.214 33.097 185.829 35.5616 190.156 35.5616C193.77 35.5068 197.878 34.7948 197.878 30.9063C197.878 26.6345 191.36 25.9773 187.581 25.0462C182.324 23.7318 176.628 21.5959 176.628 14.5856C176.628 7.13721 184.295 4.7822 190.758 4.94651C197.33 5.05604 203.683 8.45163 203.683 15.7905L197.659 16.3382Z" fill="#B2B2B2"/>
  <path d="M211.39 26.9631C211.39 31.8374 214.512 35.5616 219.66 35.5616C223.22 35.5616 225.904 33.7543 227.164 31.0159L231.654 33.3709C230.066 37.7523 225.685 40.874 219.66 40.874C211.664 40.874 205.53 35.1782 205.53 27.0178C205.53 18.8575 211.719 13.1616 219.66 13.1616C225.685 13.1616 230.066 16.2834 231.654 20.6648L227.164 23.0198C225.904 20.2814 223.22 18.4741 219.66 18.4741C214.567 18.4741 211.39 22.1435 211.39 26.9631Z" fill="#B2B2B2"/>
  <path d="M234.284 13.5998H236.037C238.337 13.5998 239.925 15.1333 239.87 17.4335V17.8169C241.513 15.4619 244.088 13.3807 246.607 13.3807H252.467V18.6932H246.114C241.952 18.6932 240.035 21.7054 240.035 26.6892V40.1621H234.284V18.8027V13.5998Z" fill="#B2B2B2"/>
  <path d="M253.108 27.0178C253.108 19.3504 258.695 13.1616 267.184 13.1616C275.673 13.1616 281.204 19.4051 281.204 27.0178C281.204 34.9591 275.125 40.7097 267.184 40.7097C259.242 40.7097 253.108 34.9591 253.108 27.0178ZM267.184 35.3973C272.222 35.3973 275.399 31.7279 275.399 26.9631C275.399 22.1435 272.222 18.4741 267.184 18.4741C262.145 18.4741 258.968 22.1435 258.968 26.9631C258.968 31.6731 262.2 35.3973 267.184 35.3973Z" fill="#B2B2B2"/>
  <path d="M283.892 3.08441H289.643V35.4521H294.243V40.6002H290.683C286.795 40.5454 283.892 38.519 283.892 34.0281V3.08441Z" fill="#B2B2B2"/>
  <path d="M296.664 3.08441H302.415V35.4521H307.015V40.6002H303.455C299.567 40.5454 296.664 38.519 296.664 34.0281V3.08441Z" fill="#B2B2B2"/>
  <path d="M22.5166 16.3382C22.4618 12.614 19.2305 10.3137 15.5063 10.259C12.056 10.2042 7.89362 10.6423 7.89362 14.5308C7.89362 17.8717 11.9464 19.0218 15.2872 19.7338C21.0926 20.9386 29.1434 22.746 29.1434 30.742C29.1434 38.2452 22.188 40.7097 15.0682 40.8193C8.05793 40.9288 1.04768 37.4785 0.5 30.1396L6.68874 29.3181C7.07211 33.097 10.6868 35.5616 15.0134 35.5616C18.6281 35.5068 22.7356 34.7948 22.7356 30.9063C22.7356 26.6345 16.2183 25.9773 12.4393 25.0462C7.18165 23.7318 1.48582 21.5959 1.48582 14.5856C1.48582 7.13721 9.15328 4.7822 15.6159 4.94651C22.188 5.05604 28.541 8.45163 28.541 15.7905L22.5166 16.3382Z" fill="#B2B2B2"/>
  <path d="M29.3475 13.3807H30.1691C32.9074 13.3807 34.602 13.3841 34.602 13.3841V4.29643H40.4356V13.5998H49.0091V18.5289H40.4654V35.6711H50.0497V40.7097L41.3964 40.7645C37.5079 40.7097 34.6052 38.5738 34.6052 34.0281V18.5289H29.3475V13.3807Z" fill="#B2B2B2"/>
  <path d="M50.3792 27.0178C50.3792 19.3504 55.9654 13.1616 64.4544 13.1616C72.9434 13.1616 78.4749 19.4051 78.4749 27.0178C78.4749 34.9591 72.3957 40.7097 64.4544 40.7097C56.5131 40.7097 50.3792 34.9591 50.3792 27.0178ZM64.4544 35.3973C69.493 35.3973 72.6696 31.7279 72.6696 26.9631C72.6696 22.1435 69.493 18.4741 64.4544 18.4741C59.4158 18.4741 56.2393 22.1435 56.2393 26.9631C56.2393 31.6731 59.4706 35.3973 64.4544 35.3973Z" fill="#B2B2B2"/>
  <path d="M87.0777 51.8823H81.3271V13.7093H86.9134V19.5147C88.6112 15.4619 92.9926 13.1616 96.8811 13.1616C104.11 13.1616 109.368 18.6932 109.368 26.9083C109.368 34.7948 104.11 40.7097 96.443 40.7097C92.4997 40.7097 88.885 38.1357 87.0777 34.9044V51.8823ZM95.2381 35.7259C100.222 35.7259 103.453 31.7279 103.453 27.0178C103.453 22.1983 100.222 18.3098 95.2928 18.3098C90.2542 18.3098 87.0229 22.3078 87.0229 27.0178C87.0229 31.7279 90.2542 35.7259 95.2381 35.7259Z" fill="#B2B2B2"/>
  <path d="M116.677 25.8284C116.748 25.6857 116.891 25.4718 117.105 25.1866C117.319 24.8657 117.426 24.5982 117.426 24.3843V24.2238C117.426 24.1882 117.39 24.1525 117.319 24.1169C117.248 24.0456 117.194 24.0099 117.158 24.0099H116.196C115.269 24.2952 114.235 24.4913 113.094 24.5982C111.917 24.7052 110.794 24.7409 109.724 24.7052C108.619 24.6695 107.674 24.5804 106.889 24.4378C106.105 24.2595 105.641 24.0634 105.499 23.8495C105.356 23.6355 105.624 23.3859 106.301 23.1007C106.979 22.7798 108.262 22.4589 110.152 22.138C110.259 22.138 110.509 22.1023 110.901 22.031C111.257 21.924 111.667 21.8349 112.131 21.7636C112.559 21.6923 112.969 21.621 113.361 21.5496C113.753 21.4427 114.003 21.3892 114.11 21.3892C114.252 21.3535 114.555 21.3357 115.019 21.3357C115.483 21.3001 115.946 21.2644 116.41 21.2287C116.909 21.1931 117.372 21.1753 117.8 21.1753C118.264 21.1753 118.585 21.1753 118.763 21.1753L119.03 20.8544L123.202 13.848C123.345 13.5984 123.594 13.4023 123.951 13.2596C124.343 13.117 124.646 13.0457 124.86 13.0457C125.324 13.0457 125.644 13.2418 125.823 13.634C126.001 13.9906 126.09 14.3471 126.09 14.7037C126.09 14.7394 126.072 14.775 126.037 14.8107C126.037 14.8463 126.037 14.882 126.037 14.9176V15.1316L123.683 20.8544V21.1753C123.755 20.9613 123.88 20.8544 124.058 20.8544C124.272 20.8544 124.432 20.8544 124.539 20.8544C125.074 20.8544 125.591 21.0326 126.09 21.3892C126.589 21.7458 126.839 22.2271 126.839 22.8333C126.839 23.1185 126.75 23.3503 126.572 23.5285C126.393 23.7068 126.179 23.8495 125.93 23.9564C125.68 24.0634 125.413 24.1525 125.127 24.2238C124.842 24.2595 124.593 24.2773 124.379 24.2773C123.951 24.2773 123.541 24.2238 123.149 24.1169C122.792 24.0099 122.4 23.9564 121.972 23.9564C121.58 23.9564 121.223 24.1704 120.902 24.5982C120.581 24.9904 120.278 25.5253 119.993 26.2028C119.743 26.8446 119.529 27.5755 119.351 28.3956C119.173 29.2157 119.012 30.0179 118.87 30.8024C118.727 31.5868 118.62 32.3177 118.549 32.9952C118.513 33.6727 118.495 34.1897 118.495 34.5462C118.495 34.6889 118.495 34.9741 118.495 35.402C118.531 35.8299 118.549 36.1151 118.549 36.2577C118.585 36.4717 118.674 36.6678 118.816 36.8461C118.959 36.9887 119.102 37.1491 119.244 37.3274H120.474C121.901 37.3274 123.309 37.0065 124.7 36.3647C126.126 35.7229 127.463 34.9919 128.711 34.1719C128.782 34.1362 128.943 33.9757 129.192 33.6905C129.478 33.3696 129.781 33.0665 130.101 32.7813C130.422 32.4604 130.708 32.1751 130.957 31.9255C131.242 31.6759 131.439 31.5511 131.546 31.5511C131.795 31.5511 132.027 31.6759 132.241 31.9255C132.455 32.1751 132.562 32.4425 132.562 32.7278C132.562 33.4053 132.312 34.0649 131.813 34.7067C131.349 35.3485 130.743 35.9547 129.995 36.5252C129.246 37.06 128.39 37.5592 127.427 38.0227C126.465 38.4862 125.502 38.8784 124.539 39.1994C123.612 39.5203 122.721 39.7698 121.865 39.9481C121.045 40.1264 120.367 40.2155 119.833 40.2155C119.333 40.2155 118.816 40.1621 118.282 40.0551C117.747 39.9125 117.265 39.6985 116.837 39.4133C116.41 39.128 116.053 38.7715 115.768 38.3436C115.483 37.9157 115.34 37.3809 115.34 36.7391V30.8024L116.677 25.8284Z" fill="#B2B2B2"/>
  <path d="M142.349 28.1282C142.278 27.9855 142.153 27.7894 141.975 27.5398C141.832 27.2546 141.654 27.112 141.44 27.112C140.763 27.112 140.067 27.4151 139.354 28.0212C138.677 28.5917 138.017 29.287 137.375 30.1071C136.769 30.8915 136.234 31.6938 135.771 32.5139C135.343 33.3339 135.076 33.9758 134.969 34.4393C134.826 34.9028 134.755 35.4555 134.755 36.0973C134.755 36.7391 134.701 37.3452 134.594 37.9157C134.523 38.4862 134.327 38.9676 134.006 39.3598C133.721 39.752 133.204 39.9481 132.455 39.9481C131.991 39.9481 131.67 39.859 131.492 39.6807C131.349 39.4668 131.278 39.128 131.278 38.6645C131.528 36.953 131.742 35.5446 131.92 34.4393C132.134 33.3339 132.312 32.3712 132.455 31.5511C132.633 30.6954 132.794 29.8753 132.936 29.0909C133.114 28.2708 133.311 27.2903 133.524 26.1493C133.738 25.0083 133.97 23.6177 134.22 21.9775C134.469 20.3017 134.772 18.1802 135.129 15.6129C135.129 15.0781 135.165 14.3293 135.236 13.3666C135.307 12.3682 135.432 11.3164 135.61 10.211C135.824 9.07005 136.092 7.92906 136.413 6.78807C136.734 5.61142 137.126 4.55957 137.589 3.63251C138.088 2.70546 138.659 1.95668 139.301 1.38619C139.943 0.780036 140.691 0.47696 141.547 0.47696C142.153 0.47696 142.635 0.690896 142.991 1.11877C143.383 1.51098 143.669 1.99234 143.847 2.56283C144.061 3.13333 144.186 3.73948 144.221 4.38129C144.257 4.98744 144.275 5.48663 144.275 5.87884C144.275 6.77024 144.203 7.62598 144.061 8.44607C143.918 9.2305 143.74 10.0328 143.526 10.8528C143.312 11.6373 143.08 12.4395 142.831 13.2596C142.581 14.0441 142.367 14.8285 142.189 15.6129L138.766 22.138L136.84 26.3097L137.108 26.898C137.857 26.0066 138.623 25.3292 139.408 24.8657C140.192 24.3665 141.173 24.0812 142.349 24.0099C142.884 23.9743 143.33 24.1347 143.686 24.4913C144.079 24.8478 144.4 25.3113 144.649 25.8818C144.899 26.4167 145.077 26.9694 145.184 27.5398C145.327 28.1103 145.416 28.5739 145.451 28.9304C145.451 29.1444 145.434 29.4831 145.398 29.9466C145.362 30.4102 145.327 30.945 145.291 31.5511C145.255 32.1573 145.22 32.7991 145.184 33.4766C145.184 34.1184 145.22 34.7245 145.291 35.295C145.362 35.8655 145.505 36.3647 145.719 36.7926C145.968 37.1848 146.289 37.4166 146.682 37.4879C148.072 37.3096 149.302 37.0778 150.372 36.7926C151.477 36.4717 152.44 36.0438 153.26 35.509C154.08 34.9385 154.758 34.2253 155.292 33.3696C155.863 32.5139 156.291 31.462 156.576 30.214C156.826 29.8575 157.182 29.6792 157.646 29.6792C158.181 29.6792 158.519 29.8753 158.662 30.2675C158.84 30.6597 158.929 31.0876 158.929 31.5511C158.929 32.9774 158.466 34.2432 157.539 35.3485C156.647 36.4182 155.506 37.3096 154.116 38.0227C152.725 38.7358 151.228 39.2885 149.623 39.6807C148.019 40.0373 146.539 40.2155 145.184 40.2155C144.328 40.2155 143.74 39.9303 143.419 39.3598C143.098 38.7537 142.902 38.0405 142.831 37.2204C142.795 36.3647 142.795 35.509 142.831 34.6532C142.866 33.7975 142.866 33.1022 142.831 32.5673C142.831 32.3891 142.813 32.1038 142.777 31.7116C142.742 31.2837 142.688 30.838 142.617 30.3745C142.581 29.911 142.528 29.4653 142.456 29.0374C142.385 28.6095 142.349 28.3065 142.349 28.1282ZM137.964 15.292C137.964 15.399 137.964 15.5773 137.964 15.8269C137.964 16.0765 137.964 16.3082 137.964 16.5222C137.999 16.7361 138.017 16.9322 138.017 17.1105C138.017 17.2888 138.017 17.3957 138.017 17.4314L138.285 17.6988C138.641 17.4849 138.962 17.1105 139.247 16.5756C139.568 16.0408 139.853 15.399 140.103 14.6502C140.353 13.9014 140.567 13.117 140.745 12.2969C140.959 11.4412 141.137 10.6033 141.28 9.78317C141.422 8.96308 141.529 8.21431 141.601 7.53684C141.708 6.85938 141.761 6.30671 141.761 5.87884C141.761 5.73622 141.743 5.4688 141.708 5.07658C141.708 4.68437 141.69 4.4526 141.654 4.38129L141.387 3.84645C140.531 4.52391 139.871 5.32617 139.408 6.25323C138.944 7.18028 138.605 8.143 138.392 9.14136C138.178 10.1397 138.053 11.1738 138.017 12.2434C137.981 13.3131 137.964 14.3293 137.964 15.292Z" fill="#B2B2B2"/>
  <path d="M157.913 31.8186C157.984 31.6046 158.091 31.2302 158.234 30.6954C158.412 30.1249 158.573 29.5188 158.715 28.8769C158.894 28.2351 159.036 27.629 159.143 27.0585C159.286 26.4523 159.393 26.0423 159.464 25.8284C159.678 24.9726 159.928 24.0456 160.213 23.0472C160.534 22.0488 160.962 21.1218 161.497 20.266C162.031 19.4103 162.709 18.715 163.529 18.1802C164.385 17.6097 165.437 17.3244 166.685 17.3244C167.148 17.3244 167.469 17.5027 167.647 17.8592C167.861 18.1802 168.039 18.5367 168.182 18.9289C168.182 19.0716 168.182 19.339 168.182 19.7312C168.218 20.0877 168.236 20.3373 168.236 20.48C168.236 22.0132 168.075 23.3681 167.754 24.5447C167.469 25.7214 167.005 26.8089 166.364 27.8073C165.757 28.8056 165.009 29.7505 164.117 30.6419C163.226 31.4977 162.21 32.4069 161.069 33.3696C161.033 33.4766 160.98 33.6548 160.908 33.9044C160.837 34.154 160.801 34.3323 160.801 34.4393V34.5462C160.801 35.1881 160.908 35.7051 161.122 36.0973C161.336 36.4895 161.621 36.8104 161.978 37.06C162.37 37.2739 162.798 37.4166 163.262 37.4879C163.761 37.5235 164.296 37.5413 164.866 37.5413C166.542 37.5413 168.146 37.3096 169.68 36.8461C171.213 36.3825 172.621 35.6338 173.905 34.5997C174.083 34.4215 174.297 34.1719 174.547 33.851C174.832 33.4944 175.402 32.7813 175.402 32.7813L176.312 31.872C176.633 31.5868 176.971 31.4442 177.328 31.4442C177.684 31.4442 177.898 31.5868 177.97 31.872C178.041 32.1573 178.077 32.4425 178.077 32.7278C178.077 33.5122 177.827 34.261 177.328 34.9741C176.864 35.6516 176.24 36.2756 175.456 36.8461C174.707 37.3809 173.834 37.8623 172.835 38.2901C171.872 38.718 170.91 39.0746 169.947 39.3598C168.984 39.6451 168.057 39.859 167.166 40.0016C166.31 40.1442 165.579 40.2155 164.973 40.2155C163.083 40.2155 161.497 39.9125 160.213 39.3063C158.965 38.6645 158.109 37.3987 157.646 35.509L157.913 31.8186ZM165.561 21.2822C164.848 21.924 164.278 22.5124 163.85 23.0472C163.458 23.5464 163.137 24.0812 162.887 24.6517C162.673 25.1866 162.477 25.7749 162.299 26.4167C162.156 27.0585 161.996 27.8073 161.817 28.663C162.495 28.1282 163.048 27.5933 163.475 27.0585C163.939 26.5237 164.313 25.971 164.599 25.4005C164.884 24.83 165.098 24.2238 165.24 23.582C165.383 22.9046 165.49 22.138 165.561 21.2822Z" fill="#B2B2B2"/>
  <path d="M294.155 35.4481H303.758V40.5989H294.155V35.4481Z" fill="#B2B2B2"/>
  <path d="M302.405 35.4481H311.344V40.5989H302.405V35.4481Z" fill="#B2B2B2"/>
  <path d="M248.384 13.379L257.832 13.2656L267.281 13.1522L264.933 18.6868H256.658H248.384V13.379Z" fill="#B2B2B2"/>
  <path d="M43.8118 35.6696H64.2594V40.7318H43.8118V35.6696Z" fill="#B2B2B2"/>
  <path d="M22.5285 13.3841L38.1762 13.3841V18.5372L22.5285 18.5372V13.3841Z" fill="#B2B2B2"/>
  <path d="M176.312 31.872L176.495 31.2213L181.119 29.4118L181.317 36.5685L177.26 35.0713C177.26 35.0713 177.062 35.471 176.155 36.2859C175.248 37.1008 174.73 37.3243 174.73 37.3243V33.6222L175.402 32.7813L176.312 31.872Z" fill="#B2B2B2"/>
  <path d="M34.602 4.29643H40.4356V25.4446H34.602V4.29643Z" fill="#B2B2B2"/>
</svg>